<?xml version="1.0" encoding="utf-8"?>
<!-- Generator: Adobe Illustrator 24.0.1, SVG Export Plug-In . SVG Version: 6.00 Build 0)  -->
<svg version="1.1" id="Layer_1"  width="218" height="24" fill="#ffffff" xmlns="http://www.w3.org/2000/svg" xmlns:xlink="http://www.w3.org/1999/xlink" x="0px" y="0px"
	 viewBox="0 0 109 12" style="enable-background:new 0 0 109 12;" xml:space="preserve">
<g>
	<path d="M23.192,3.515c0.396,0.256,0.704,0.616,0.924,1.08c0.22,0.464,0.33,1,0.33,1.608c0,0.6-0.108,1.128-0.324,1.584
		c-0.216,0.456-0.522,0.809-0.918,1.056c-0.396,0.248-0.85,0.372-1.362,0.372c-0.44,0-0.828-0.094-1.164-0.282
		c-0.336-0.188-0.592-0.458-0.768-0.81v3.168h-1.212V3.275h1.212v0.96c0.176-0.352,0.432-0.624,0.768-0.816s0.724-0.288,1.164-0.288
		C22.346,3.131,22.796,3.259,23.192,3.515z M22.778,7.721c0.288-0.356,0.432-0.862,0.432-1.518c0-0.664-0.146-1.18-0.438-1.548
		c-0.292-0.368-0.698-0.552-1.218-0.552c-0.528,0-0.934,0.18-1.218,0.54c-0.284,0.36-0.426,0.872-0.426,1.536
		c0,0.664,0.142,1.176,0.426,1.536c0.284,0.36,0.69,0.54,1.218,0.54C22.082,8.255,22.49,8.078,22.778,7.721z"/>
	<path d="M26.816,8.843c-0.437-0.248-0.772-0.602-1.008-1.062c-0.236-0.46-0.354-0.994-0.354-1.602c0-0.616,0.118-1.154,0.354-1.614
		s0.572-0.814,1.008-1.062c0.436-0.248,0.942-0.372,1.518-0.372c0.576,0,1.082,0.124,1.518,0.372s0.772,0.602,1.008,1.062
		c0.236,0.46,0.354,0.998,0.354,1.614c0,0.608-0.118,1.142-0.354,1.602c-0.236,0.46-0.572,0.814-1.008,1.062
		c-0.436,0.248-0.942,0.372-1.518,0.372C27.758,9.215,27.252,9.091,26.816,8.843z M29.564,7.727
		c0.284-0.352,0.426-0.868,0.426-1.548c0-0.672-0.144-1.186-0.432-1.542c-0.288-0.356-0.696-0.534-1.224-0.534
		c-0.528,0-0.936,0.178-1.224,0.534c-0.288,0.356-0.432,0.87-0.432,1.542c0,0.68,0.142,1.196,0.426,1.548
		c0.284,0.352,0.694,0.528,1.23,0.528C28.87,8.255,29.28,8.08,29.564,7.727z"/>
	<path d="M40.406,3.275h1.2l-2.244,5.856H38.27l-1.548-4.188l-1.548,4.188H34.07l-2.232-5.856h1.26l1.584,4.404l1.596-4.404h0.948
		l1.596,4.428L40.406,3.275z"/>
	<path d="M47.582,6.407h-4.14c0.088,1.24,0.704,1.86,1.848,1.86c0.672,0,1.28-0.22,1.824-0.66l0.372,0.852
		c-0.272,0.232-0.608,0.416-1.008,0.552c-0.4,0.136-0.808,0.204-1.224,0.204c-0.936,0-1.674-0.268-2.214-0.804
		c-0.54-0.536-0.81-1.276-0.81-2.22c0-0.6,0.118-1.132,0.354-1.596c0.236-0.464,0.568-0.824,0.996-1.08
		c0.428-0.256,0.914-0.384,1.458-0.384c0.792,0,1.414,0.256,1.866,0.768c0.452,0.512,0.678,1.22,0.678,2.124V6.407z M43.952,4.457
		c-0.276,0.292-0.442,0.71-0.498,1.254h3.084c-0.024-0.544-0.162-0.962-0.414-1.254s-0.606-0.438-1.062-0.438
		C44.598,4.019,44.228,4.165,43.952,4.457z"/>
	<path d="M52.478,4.151l-0.732,0.072c-0.576,0.056-0.99,0.232-1.242,0.528s-0.378,0.672-0.378,1.128v3.252h-1.212V3.275h1.176v1.02
		c0.312-0.688,0.948-1.068,1.908-1.14l0.396-0.024L52.478,4.151z"/>
	<path d="M59.786,8.243l-0.06,0.924c-0.2,0.032-0.408,0.048-0.624,0.048c-0.76,0-1.326-0.186-1.698-0.558s-0.558-0.91-0.558-1.614
		V4.211h-1.14V3.275h1.14V1.511h1.212v1.764h1.608v0.936h-1.608v2.784c0,0.856,0.396,1.284,1.188,1.284
		C59.43,8.279,59.61,8.268,59.786,8.243z"/>
	<path d="M65.966,5.495v3.636h-1.212V5.555c0-0.496-0.098-0.86-0.294-1.092c-0.196-0.232-0.502-0.348-0.918-0.348
		c-0.488,0-0.88,0.152-1.176,0.456c-0.296,0.304-0.444,0.712-0.444,1.224v3.336H60.71v-8.46h1.212v3.492
		c0.2-0.336,0.468-0.592,0.804-0.768c0.336-0.176,0.716-0.264,1.14-0.264C65.266,3.131,65.966,3.919,65.966,5.495z"/>
	<path d="M72.638,6.407h-4.14c0.088,1.24,0.704,1.86,1.848,1.86c0.672,0,1.28-0.22,1.824-0.66l0.372,0.852
		c-0.272,0.232-0.608,0.416-1.008,0.552c-0.4,0.136-0.808,0.204-1.224,0.204c-0.936,0-1.674-0.268-2.214-0.804
		c-0.54-0.536-0.81-1.276-0.81-2.22c0-0.6,0.118-1.132,0.354-1.596c0.236-0.464,0.568-0.824,0.996-1.08
		c0.428-0.256,0.914-0.384,1.458-0.384c0.792,0,1.414,0.256,1.866,0.768c0.452,0.512,0.678,1.22,0.678,2.124V6.407z M69.008,4.457
		c-0.276,0.292-0.442,0.71-0.498,1.254h3.084c-0.024-0.544-0.162-0.962-0.414-1.254s-0.606-0.438-1.062-0.438
		C69.654,4.019,69.284,4.165,69.008,4.457z"/>
	<path d="M73.598,8.471l0.372-0.876c0.6,0.464,1.3,0.696,2.1,0.696c0.392,0,0.692-0.066,0.9-0.198
		c0.208-0.132,0.312-0.318,0.312-0.558c0-0.208-0.07-0.372-0.21-0.492s-0.382-0.22-0.726-0.3l-0.972-0.216
		c-0.521-0.12-0.912-0.316-1.176-0.588c-0.264-0.272-0.396-0.616-0.396-1.032c0-0.528,0.214-0.956,0.642-1.284
		c0.428-0.328,0.99-0.492,1.686-0.492c0.416,0,0.812,0.066,1.188,0.198c0.376,0.132,0.7,0.318,0.972,0.558l-0.372,0.852
		c-0.576-0.456-1.172-0.684-1.788-0.684c-0.368,0-0.658,0.072-0.87,0.216s-0.318,0.34-0.318,0.588c0,0.2,0.066,0.362,0.198,0.486
		c0.132,0.124,0.342,0.218,0.63,0.282l0.996,0.228c0.568,0.128,0.984,0.326,1.248,0.594c0.264,0.268,0.396,0.618,0.396,1.05
		c0,0.528-0.214,0.946-0.642,1.254c-0.428,0.308-1.006,0.462-1.734,0.462C75.017,9.215,74.205,8.967,73.598,8.471z"/>
	<path d="M83.948,3.719c0.38,0.392,0.57,0.988,0.57,1.788v3.624h-1.164V8.159c-0.152,0.344-0.378,0.606-0.678,0.786
		c-0.3,0.18-0.65,0.27-1.05,0.27c-0.384,0-0.736-0.078-1.056-0.234C80.25,8.825,80,8.607,79.82,8.327
		c-0.18-0.28-0.27-0.592-0.27-0.936c0-0.424,0.11-0.758,0.33-1.002c0.22-0.244,0.584-0.418,1.092-0.522
		c0.508-0.104,1.206-0.156,2.094-0.156h0.276V5.363c0-0.448-0.094-0.772-0.282-0.972c-0.188-0.2-0.494-0.3-0.918-0.3
		c-0.664,0-1.328,0.204-1.992,0.612l-0.36-0.852c0.312-0.216,0.69-0.39,1.134-0.522c0.444-0.132,0.87-0.198,1.278-0.198
		C82.986,3.131,83.568,3.328,83.948,3.719z M82.922,7.865c0.28-0.3,0.42-0.686,0.42-1.158V6.395h-0.216
		c-0.624,0-1.104,0.028-1.44,0.084s-0.576,0.15-0.72,0.282c-0.144,0.132-0.216,0.322-0.216,0.57c0,0.28,0.102,0.514,0.306,0.702
		c0.204,0.188,0.466,0.282,0.786,0.282C82.282,8.315,82.642,8.165,82.922,7.865z"/>
	<path d="M91.309,3.275v5.856h-1.176V8.183c-0.184,0.336-0.438,0.592-0.762,0.768c-0.324,0.176-0.686,0.264-1.086,0.264
		c-1.424,0-2.136-0.784-2.136-2.352V3.275h1.212v3.576c0,0.472,0.096,0.82,0.288,1.044s0.488,0.336,0.888,0.336
		c0.472,0,0.85-0.152,1.134-0.456s0.426-0.708,0.426-1.212V3.275H91.309z"/>
	<path d="M96.565,4.151l-0.732,0.072c-0.576,0.056-0.99,0.232-1.242,0.528s-0.378,0.672-0.378,1.128v3.252h-1.212V3.275h1.176v1.02
		c0.312-0.688,0.948-1.068,1.908-1.14l0.396-0.024L96.565,4.151z"/>
	<path d="M102.53,3.275v5.856h-1.176V8.183c-0.184,0.336-0.438,0.592-0.762,0.768c-0.324,0.176-0.686,0.264-1.086,0.264
		c-1.424,0-2.136-0.784-2.136-2.352V3.275h1.212v3.576c0,0.472,0.096,0.82,0.288,1.044s0.488,0.336,0.888,0.336
		c0.472,0,0.85-0.152,1.134-0.456s0.426-0.708,0.426-1.212V3.275H102.53z"/>
	<path d="M103.849,8.471l0.372-0.876c0.6,0.464,1.3,0.696,2.1,0.696c0.392,0,0.692-0.066,0.9-0.198
		c0.208-0.132,0.312-0.318,0.312-0.558c0-0.208-0.07-0.372-0.21-0.492s-0.382-0.22-0.726-0.3l-0.972-0.216
		c-0.521-0.12-0.912-0.316-1.176-0.588c-0.264-0.272-0.396-0.616-0.396-1.032c0-0.528,0.214-0.956,0.642-1.284
		c0.428-0.328,0.99-0.492,1.686-0.492c0.416,0,0.812,0.066,1.188,0.198c0.376,0.132,0.7,0.318,0.972,0.558l-0.372,0.852
		c-0.576-0.456-1.172-0.684-1.788-0.684c-0.368,0-0.658,0.072-0.87,0.216s-0.318,0.34-0.318,0.588c0,0.2,0.066,0.362,0.198,0.486
		c0.132,0.124,0.342,0.218,0.63,0.282l0.996,0.228c0.568,0.128,0.984,0.326,1.248,0.594c0.264,0.268,0.396,0.618,0.396,1.05
		c0,0.528-0.214,0.946-0.642,1.254c-0.428,0.308-1.006,0.462-1.734,0.462C105.269,9.215,104.457,8.967,103.849,8.471z"/>
</g>
<linearGradient id="SVGID_1_" gradientUnits="userSpaceOnUse" x1="0.3604" y1="12.1312" x2="2.6396" y2="5.8688">
	<stop  offset="0.0011" style="stop-color:#0888FC"/>
	<stop  offset="0.5" style="stop-color:#003FBE"/>
</linearGradient>
<rect y="6" style="fill:url(#SVGID_1_);" width="3" height="6"/>
<path style="fill:#0888FC;" d="M5,0.997L5,0.997L3,0.996V0H0v5.997c0,2.761,2.239,5,5,5c2.761,0,5-2.239,5-5S7.761,0.997,5,0.997z
	 M5,7.997c-1.103,0-2-0.897-2-2s0.897-2,2-2c1.103,0,2,0.897,2,2S6.103,7.997,5,7.997z"/>
<path style="fill:#003FBE;" d="M3,3.997v2c0-1.1,0.9-2,2-2H3z"/>
<linearGradient id="SVGID_2_" gradientUnits="userSpaceOnUse" x1="7.5" y1="11.0017" x2="7.5" y2="6.0017">
	<stop  offset="0" style="stop-color:#0888FC"/>
	<stop  offset="0.461" style="stop-color:#0888FC"/>
	<stop  offset="0.4998" style="stop-color:#0888FC"/>
	<stop  offset="0.6566" style="stop-color:#1085F8"/>
	<stop  offset="0.9058" style="stop-color:#277CEC"/>
	<stop  offset="1" style="stop-color:#3278E6"/>
</linearGradient>
<path style="fill:url(#SVGID_2_);" d="M7,6.002c0,1.1-0.9,2-2,2v3c2.76,0,5-2.24,5-5H7z"/>
<linearGradient id="SVGID_3_" gradientUnits="userSpaceOnUse" x1="7.5" y1="6.0017" x2="7.5" y2="1.0017">
	<stop  offset="0" style="stop-color:#3278E6"/>
	<stop  offset="1" style="stop-color:#003FBE"/>
</linearGradient>
<path style="fill:url(#SVGID_3_);" d="M5,1.002v3c1.11,0,2,0.9,2,2h3C10,3.242,7.77,1.002,5,1.002z"/>
</svg>
