<svg xmlns="http://www.w3.org/2000/svg" width="145" height="32"  viewBox="0 6 145 32" fill="none"><path fill="#315EFB" fill-rule="evenodd" d="M132.532 34h-4.864l11.843-28h4.864l-11.843 28Zm-11.945-10.897c.683-.683 1.025-1.544 1.025-2.583 0-1.04-.342-1.901-1.025-2.584-.683-.683-1.544-1.025-2.583-1.025-1.039 0-1.901.342-2.584 1.025-.683.683-1.024 1.544-1.024 2.584 0 1.039.336 1.9 1.01 2.583.673.683 1.539 1.025 2.598 1.025 1.039 0 1.9-.342 2.583-1.025Zm1.949-9.482c1.135.654 2.059 1.578 2.771 2.771.712 1.193 1.068 2.569 1.068 4.128 0 1.558-.356 2.939-1.068 4.142-.712 1.203-1.636 2.127-2.771 2.771-1.136.645-2.319.967-3.551.967-1.828 0-3.281-.51-4.359-1.53v6.928h-4.82V13.014h4.243v1.732c1.155-1.404 2.8-2.107 4.936-2.107 1.232 0 2.415.328 3.551.982Zm-25.085 3.305c-.558.433-.952 1.063-1.183 1.891h6.466c-.173-.751-.534-1.362-1.083-1.833-.548-.472-1.275-.708-2.179-.708-.789 0-1.463.217-2.021.65Zm5.99-3.305a7.615 7.615 0 0 1 2.93 2.756c.731 1.184 1.097 2.517 1.097 3.998a8.44 8.44 0 0 1-.116 1.444H96.181c.173.943.553 1.674 1.14 2.193.587.52 1.323.78 2.209.78 1.289 0 2.241-.452 2.857-1.357h4.619a7.768 7.768 0 0 1-2.8 3.594c-1.29.914-2.868 1.371-4.734 1.371a8.428 8.428 0 0 1-4.013-.981 7.643 7.643 0 0 1-2.958-2.772c-.741-1.193-1.112-2.569-1.112-4.127 0-1.559.371-2.935 1.112-4.128a7.648 7.648 0 0 1 2.958-2.771 8.429 8.429 0 0 1 4.013-.982c1.424 0 2.747.328 3.969.982Zm-17.94-.607 5.6 15.011h-4.936l-3.146-8.978-3.147 8.978h-4.936l5.744-15.011h4.821ZM68.08 23.709a3.718 3.718 0 0 0 1.299-1.327 3.484 3.484 0 0 0 .477-1.776c0-.635-.159-1.231-.477-1.789a3.692 3.692 0 0 0-1.299-1.343 3.388 3.388 0 0 0-1.804-.505c-.654 0-1.256.169-1.804.505a3.708 3.708 0 0 0-1.299 1.343 3.564 3.564 0 0 0-.476 1.789c0 .635.159 1.227.476 1.776.318.548.751.991 1.299 1.327a3.38 3.38 0 0 0 1.804.505 3.38 3.38 0 0 0 1.804-.505Zm2.901-9.8a6.918 6.918 0 0 1 2.642 2.67c.644 1.146.967 2.459.967 3.941 0 1.558-.361 2.934-1.083 4.127a7.393 7.393 0 0 1-2.959 2.772c-1.251.654-2.655.981-4.214.981-1.771 0-3.315-.385-4.633-1.155-1.318-.769-2.338-1.895-3.06-3.377-.722-1.482-1.082-3.242-1.082-5.282 0-3.618.553-6.254 1.659-7.91 1.107-1.655 2.661-2.742 4.662-3.262 1.213-.307 3.483-.663 6.813-1.068L73.291 6v4.243a121.26 121.26 0 0 1-3.407.404c-2.579.289-4.233.53-4.965.722-1.039.289-1.785.775-2.237 1.458-.452.683-.717 1.583-.793 2.699.711-.885 1.496-1.535 2.352-1.949.856-.413 1.871-.62 3.045-.62 1.347 0 2.579.317 3.695.952Zm-17.435-.895 3.089 15.011h-4.648l-1.587-8.4-3.291 8.4h-2.367l-3.204-8.4-1.617 8.4h-4.589l3.088-15.011h4.244l3.319 8.545 3.349-8.545h4.214ZM27.437 23.103c.683-.683 1.025-1.544 1.025-2.583 0-1.04-.342-1.901-1.025-2.584-.683-.683-1.544-1.025-2.583-1.025-1.039 0-1.901.342-2.584 1.025-.683.683-1.024 1.544-1.024 2.584 0 1.039.341 1.9 1.024 2.583.683.683 1.545 1.025 2.584 1.025 1.039 0 1.9-.342 2.583-1.025Zm1.343-10.089h4.243v15.011H28.78v-1.703c-1.117 1.385-2.753 2.078-4.908 2.078-1.231 0-2.415-.322-3.55-.967-1.136-.644-2.06-1.568-2.771-2.771-.712-1.203-1.068-2.584-1.068-4.142 0-1.559.356-2.94 1.068-4.143.711-1.202 1.635-2.126 2.771-2.771 1.135-.644 2.319-.967 3.55-.967 2.136 0 3.772.693 4.908 2.079v-1.704ZM7.159 17.056c.962 0 1.707-.231 2.237-.693.529-.462.794-1.058.794-1.79 0-.712-.265-1.299-.794-1.761-.53-.462-1.275-.692-2.237-.692H5.052v4.936h2.107Zm.231-9.237c1.597 0 2.992.279 4.185.837 1.193.558 2.117 1.347 2.771 2.367.654 1.02.982 2.203.982 3.55s-.323 2.531-.967 3.551c-.645 1.02-1.569 1.814-2.771 2.381-1.203.568-2.603.852-4.2.852H5.052v6.668H0V7.819h7.39Z" clip-rule="evenodd"/></svg>