<?xml version="1.0" encoding="iso-8859-1"?>
<!-- Uploaded to: SVG Repo, www.svgrepo.com, Generator: SVG Repo Mixer Tools -->
<svg height="800px" width="800px" version="1.1" id="Layer_1" xmlns="http://www.w3.org/2000/svg" xmlns:xlink="http://www.w3.org/1999/xlink" 
	 viewBox="0 0 511.985 511.985" xml:space="preserve">
<path style="fill:#E5E8EC;" d="M456.426,63.991h-0.875c-1.594-9.539-5.328-18.538-10.952-26.405l0.64-0.633
	c4.156-4.164,4.156-10.922,0-15.086c-4.171-4.164-10.921-4.164-15.093,0l-0.625,0.633c-7.875-5.625-16.875-9.351-26.422-10.945
	v-0.891c0-5.89-4.766-10.664-10.656-10.664c-5.905,0-10.671,4.773-10.671,10.664v0.891c-9.546,1.586-18.546,5.312-26.42,10.937
	l-0.625-0.625c-4.172-4.164-10.922-4.164-15.078,0c-4.172,4.164-4.172,10.922,0,15.086l-15.094,15.085
	c-4.172-4.172-10.922-4.172-15.078,0c-4.172,4.164-4.172,10.914,0,15.085l-15.093,15.085l0,0c-4.156-4.172-10.922-4.172-15.078,0
	c-4.171,4.164-4.171,10.914,0,15.085l-15.093,15.085c-4.156-4.172-10.922-4.172-15.094,0c-4.156,4.164-4.156,10.914,0,15.086
	l-15.078,15.085l0,0c-4.172-4.171-10.922-4.171-15.078,0c-4.171,4.164-4.171,10.914,0,15.086l-31.467,31.46l90.498,90.506
	l31.467-31.468c2.094,2.086,4.812,3.125,7.547,3.125s5.453-1.039,7.547-3.125c4.156-4.164,4.156-10.914,0-15.078v-0.008
	l15.078-15.085l0,0c2.078,2.086,4.812,3.125,7.547,3.125s5.453-1.039,7.547-3.125c4.156-4.164,4.156-10.914,0-15.078l0,0
	l15.077-15.085c2.078,2.078,4.812,3.117,7.546,3.117c2.734,0,5.453-1.039,7.547-3.117c4.156-4.172,4.156-10.921,0-15.085l0,0
	l15.077-15.085l0,0c2.078,2.078,4.812,3.125,7.547,3.125s5.453-1.047,7.547-3.125c4.156-4.172,4.156-10.922,0-15.086l15.078-15.085
	l0,0c2.078,2.078,4.812,3.125,7.547,3.125c2.719,0,5.453-1.046,7.53-3.125c4.172-4.164,4.172-10.922,0-15.086l-0.624-0.625
	c5.624-7.875,9.358-16.875,10.952-26.421h0.875c5.906,0,10.671-4.773,10.671-10.664S462.332,63.991,456.426,63.991z"/>
<path style="fill:#CCD1D9;" d="M240.291,237.478c-2.734,0-5.453-1.047-7.546-3.125c-4.156-4.172-4.156-10.922,0-15.085
	L384.896,67.116c4.156-4.164,10.921-4.164,15.077,0c4.172,4.164,4.172,10.921,0,15.085L247.838,234.353
	C245.744,236.431,243.025,237.478,240.291,237.478z"/>
<path style="fill:#080808;" d="M131.56,294.696c0,5.891,4.781,10.672,10.687,10.672c5.875,0,10.656-4.781,10.656-10.672
	s-4.781-10.672-10.656-10.672C136.341,284.024,131.56,288.805,131.56,294.696z"/>
<path style="fill:#EC5564;" d="M145.372,457.503l-15.093-15.078c3.578-3.578,7.687-9.812,2.062-22.686
	c-3.484-8.016-9.016-14.344-9.781-15.203l-60.17-60.17c-20.796-20.797-20.796-54.623,0-75.428l79.857-79.842
	c10.062-10.07,23.468-15.625,37.702-15.625c14.25,0,27.64,5.555,37.717,15.625l60.343,60.342c20.796,20.796,20.796,54.632,0,75.427
	L145.372,457.503L145.372,457.503z"/>
<path style="fill:#424953;" d="M77.467,415.364c-2.718,0-5.453-1.031-7.53-3.125l-10.891-10.875c-4.172-4.156-4.172-10.922,0-15.094
	c4.172-4.154,10.922-4.154,15.078,0l10.906,10.906c4.156,4.156,4.156,10.906,0,15.062C82.936,414.333,80.217,415.364,77.467,415.364
	z"/>
<path style="fill:#EC5564;" d="M90.889,511.985l-7.469-6.045c-24.827-20.094-37.764-43.359-38.499-69.109
	c-1.328-46.795,38.764-83.73,40.483-85.277l14.328,15.797c-0.328,0.297-34.592,32.045-33.483,68.965
	c0.5,16.734,8.375,32.422,23.405,46.734l106.81-106.824l15.093,15.076L90.889,511.985z"/>
<g>
	<path style="fill:#D94452;" d="M165.309,372.804c-2.719,0-5.453-1.047-7.531-3.125c-4.171-4.172-4.171-10.938,0-15.094
		l45.249-45.25c4.156-4.17,10.922-4.17,15.093,0c4.156,4.156,4.156,10.906,0,15.078l-45.264,45.266
		C170.778,371.757,168.043,372.804,165.309,372.804z"/>
	<path style="fill:#D94452;" d="M142.247,337.366c-11.406,0-22.125-4.438-30.187-12.5c-16.625-16.641-16.625-43.717,0-60.342
		c8.062-8.062,18.781-12.5,30.187-12.5c11.391,0,22.093,4.437,30.156,12.5c16.64,16.625,16.64,43.701,0,60.342
		C164.34,332.929,153.638,337.366,142.247,337.366z M142.247,273.368c-5.719,0-11.062,2.219-15.093,6.25
		c-8.312,8.312-8.312,21.844,0,30.154c4.031,4.031,9.375,6.25,15.093,6.25c5.688,0,11.047-2.219,15.078-6.25
		c8.328-8.311,8.328-21.842,0-30.154C153.294,275.587,147.934,273.368,142.247,273.368z"/>
</g>
<path style="fill:#424953;" d="M286.165,317.991c-1.156-1.375-28.765-34.092-64.889-67.865
	c-49.748-46.491-89.966-70.998-119.528-72.85c-13.781-0.859-25.437,3.023-34.639,11.531c-10.703,9.914-16.359,21.437-16.828,34.256
	c-0.812,22.633,15.578,40.453,16.281,41.203c0.078,0.086,0.156,0.156,0.25,0.242l15.093-15.093
	c-1.625-1.875-10.749-13.07-10.312-25.586c0.25-7.031,3.531-13.366,10-19.358c4.812-4.461,10.969-6.391,18.828-5.898
	c24.109,1.5,60.811,24.671,106.138,66.999c35.218,32.922,62.999,65.826,63.28,66.17c2.125,2.5,5.125,3.781,8.172,3.781
	c2.421,0,4.858-0.812,6.858-2.5C289.384,329.241,289.962,322.507,286.165,317.991z"/>
</svg>