<svg xmlns="http://www.w3.org/2000/svg" viewBox="0 0 300 54" width="180" height="32" data-svg="s-lg"><path fill="#fff" d="M36 37H7a5 5 0 0 1 0-10h29-1l-1-2 1-1c2 0 4 1 4 3l-1 2-3 1H7l-2 2 2 2h28c4 0 7-3 7-7s-3-7-7-7H10C5 20 0 16 0 10S5 0 10 0h29a5 5 0 0 1 0 10H10l2 2-2 1c-2 0-3-1-3-3s1-3 3-3h29l2-2-2-2H10c-4 0-7 3-7 7s3 7 7 7h26c5 0 10 5 10 10s-5 10-10 10Zm49 0H59c-5 0-10-4-10-10s5-10 10-10h24a5 5 0 0 1 0 10H59l2 2-2 1c-2 0-3-1-3-3s1-3 3-3h24l2-2-2-2H59c-4 0-7 3-7 7s3 7 7 7h26c4 0 7-3 7-7V10c0-4-3-7-7-7H56l-2 2 2 2h29c2 0 3 1 3 3s-1 2-2 2l-1-2c0-1 0 0 0 0H56a5 5 0 0 1 0-10h29c5 0 10 5 10 10v17c0 6-5 10-10 10Zm21 17a5 5 0 0 1 0-10h29l2-1 1 1c0 2-1 3-3 3h-29l-1 2 1 2h29c4 0 7-3 7-7V10c0-4-3-7-7-7h-25c-4 0-7 3-7 7v17c0 4 3 7 7 7h24l1-2-1-2h-24c-2 0-3-1-3-3s0-1 1-1l2 1c0 1 0 0 0 0h24a5 5 0 0 1 0 10h-24c-6 0-10-4-10-10V10c0-5 4-10 10-10h25c6 0 10 5 10 10v34c0 5-4 10-10 10h-28Zm140-17c-3 0-5-2-5-5V12l-2-2h-7l-2 2v20a5 5 0 0 1-10 0c0-3 1-1 2-1l1 1 2 2 2-2V12c0-3 2-5 5-5h7c2 0 5 2 5 5v20l1 2c2 0 2-1 2-2V10c0-4-3-7-7-7h-30c-4 0-7 3-7 7v22l2 2 2-2V10c0-2 1-3 3-3s1 0 1 1l-1 2c-1 0 0 0 0 0v22a5 5 0 0 1-10 0V10c0-5 4-10 10-10h30c6 0 10 5 10 10v22c0 3-2 5-4 5Zm-61 0h-26c-5 0-10-4-10-10s5-10 10-10h24a5 5 0 0 1 0 10h-24l2 2-2 1c-1 0-3-1-3-3s2-3 3-3h24l2-2-2-2h-24c-3 0-7 3-7 7s3 7 7 7h26c4 0 7-3 7-7V10c0-4-3-7-7-7h-29l-2 2 2 2h29c2 0 3 1 3 3l-1 2-2-2c0-1 0 0 0 0h-29a5 5 0 0 1 0-10h29c5 0 10 5 10 10v17c0 6-5 10-10 10Zm105 0h-25c-6 0-10-4-10-10s4-10 10-10h23a5 5 0 0 1 0 10h-24 1l1 2-1 1c-2 0-4-1-4-3s2-3 4-3h23l2-2-2-2h-23c-4 0-7 3-7 7s3 7 7 7h25c4 0 7-3 7-7V10c0-4-3-7-7-7h-29l-2 2 2 2h29c2 0 3 1 3 3l-1 2-2-2c0-1 0 0 0 0h-29a5 5 0 0 1 0-10h29c6 0 10 5 10 10v17c0 6-4 10-10 10Z"></path></svg>